# xmcd
#
# Track frame offsets:
#  182
#  10795
#  22920
#  34795
#  41645
#  56682
#  67070
#  78657
#  87357
#  99007
#  109345
#  121232
#  131895
#  145570
#
# Disc length: 2055 seconds
#
# Revision: 3
# Processed by: cddbd v1.5.1PL0 Copyright (c) Steve Scherf et al.
# Submitted via: AltoMP3_Maker 3.0
#
DISCID=b508050e
DTITLE=Various Artist - The Great Willie Nelson and Waylon Jennings
DYEAR=1900
DGENRE=
TTITLE0=Blame it on the times
TTITLE1=Don't think twice, it's all right
TTITLE2=End of an understanding
TTITLE3=It's so easy
TTITLE4=Face of a fighter
TTITLE5=White lightnin'
TTITLE6=Is there something on your mind
TTITLE7=Love's gonna live here
TTITLE8=Some other time
TTITLE9=Money (that's what I want)
TTITLE10=I hope so
TTITLE11=Dream baby (how long must I dream)
TTITLE12=Everything but you
TTITLE13=Jolie Blond
EXTD=
EXTT0=
EXTT1=
EXTT2=
EXTT3=
EXTT4=
EXTT5=
EXTT6=
EXTT7=
EXTT8=
EXTT9=
EXTT10=
EXTT11=
EXTT12=
EXTT13=
PLAYORDER=
